<svg width="250" height="182" viewBox="0 0 250 182" fill="none" xmlns="http://www.w3.org/2000/svg">
<path d="M31.4961 100.232L39.9922 64.3438H44.7383L45.8223 70.3203L36.7695 107H31.6719L31.4961 100.232ZM27.1309 64.3438L34.1621 100.232L33.5762 107H27.8926L18.4297 64.3438H27.1309ZM53.293 100.086L60.2363 64.3438H68.9375L59.5039 107H53.8203L53.293 100.086ZM47.4043 64.3438L55.959 100.379L55.7246 107H50.627L41.5156 70.291L42.6875 64.3438H47.4043ZM102.16 81.7168V88.5723H79.8945V81.7168H102.16ZM82.502 64.3438V107H73.7129V64.3438H82.502ZM108.43 64.3438V107H99.6699V64.3438H108.43ZM121.115 64.3438L130.021 83.7969L138.928 64.3438H148.508L134.475 91.4727V107H125.568V91.4727L111.506 64.3438H121.115Z" fill="#1D401A"/>
<path d="M72.0586 125.344V168H63.2695V125.344H72.0586ZM89.0508 143.566V150.422H69.6562V143.566H89.0508ZM91.1016 125.344V132.229H69.6562V125.344H91.1016ZM131.238 145.676V147.697C131.238 150.939 130.799 153.85 129.92 156.428C129.041 159.006 127.801 161.203 126.199 163.02C124.598 164.816 122.684 166.193 120.457 167.15C118.25 168.107 115.799 168.586 113.104 168.586C110.428 168.586 107.977 168.107 105.75 167.15C103.543 166.193 101.629 164.816 100.008 163.02C98.3867 161.203 97.127 159.006 96.2285 156.428C95.3496 153.85 94.9102 150.939 94.9102 147.697V145.676C94.9102 142.414 95.3496 139.504 96.2285 136.945C97.1074 134.367 98.3477 132.17 99.9492 130.354C101.57 128.537 103.484 127.15 105.691 126.193C107.918 125.236 110.369 124.758 113.045 124.758C115.74 124.758 118.191 125.236 120.398 126.193C122.625 127.15 124.539 128.537 126.141 130.354C127.762 132.17 129.012 134.367 129.891 136.945C130.789 139.504 131.238 142.414 131.238 145.676ZM122.361 147.697V145.617C122.361 143.352 122.156 141.359 121.746 139.641C121.336 137.922 120.73 136.477 119.93 135.305C119.129 134.133 118.152 133.254 117 132.668C115.848 132.062 114.529 131.76 113.045 131.76C111.561 131.76 110.242 132.062 109.09 132.668C107.957 133.254 106.99 134.133 106.189 135.305C105.408 136.477 104.812 137.922 104.402 139.641C103.992 141.359 103.787 143.352 103.787 145.617V147.697C103.787 149.943 103.992 151.936 104.402 153.674C104.812 155.393 105.418 156.848 106.219 158.039C107.02 159.211 107.996 160.1 109.148 160.705C110.301 161.311 111.619 161.613 113.104 161.613C114.588 161.613 115.906 161.311 117.059 160.705C118.211 160.1 119.178 159.211 119.959 158.039C120.74 156.848 121.336 155.393 121.746 153.674C122.156 151.936 122.361 149.943 122.361 147.697ZM162.293 153.85H171.053C170.877 156.721 170.086 159.27 168.68 161.496C167.293 163.723 165.35 165.461 162.85 166.711C160.369 167.961 157.381 168.586 153.885 168.586C151.15 168.586 148.699 168.117 146.531 167.18C144.363 166.223 142.508 164.855 140.965 163.078C139.441 161.301 138.279 159.152 137.479 156.633C136.678 154.113 136.277 151.291 136.277 148.166V145.207C136.277 142.082 136.688 139.26 137.508 136.74C138.348 134.201 139.539 132.043 141.082 130.266C142.645 128.488 144.51 127.121 146.678 126.164C148.846 125.207 151.268 124.729 153.943 124.729C157.498 124.729 160.496 125.373 162.938 126.662C165.398 127.951 167.303 129.729 168.65 131.994C170.018 134.26 170.838 136.838 171.111 139.729H162.322C162.225 138.01 161.883 136.555 161.297 135.363C160.711 134.152 159.822 133.244 158.631 132.639C157.459 132.014 155.896 131.701 153.943 131.701C152.479 131.701 151.199 131.975 150.105 132.521C149.012 133.068 148.094 133.898 147.352 135.012C146.609 136.125 146.053 137.531 145.682 139.23C145.33 140.91 145.154 142.883 145.154 145.148V148.166C145.154 150.373 145.32 152.316 145.652 153.996C145.984 155.656 146.492 157.062 147.176 158.215C147.879 159.348 148.777 160.207 149.871 160.793C150.984 161.359 152.322 161.643 153.885 161.643C155.721 161.643 157.234 161.35 158.426 160.764C159.617 160.178 160.525 159.309 161.15 158.156C161.795 157.004 162.176 155.568 162.293 153.85ZM200.379 125.344H209.139V153.527C209.139 156.809 208.436 159.572 207.029 161.818C205.643 164.064 203.719 165.754 201.258 166.887C198.816 168.02 196.004 168.586 192.82 168.586C189.637 168.586 186.805 168.02 184.324 166.887C181.863 165.754 179.93 164.064 178.523 161.818C177.137 159.572 176.443 156.809 176.443 153.527V125.344H185.232V153.527C185.232 155.441 185.535 157.004 186.141 158.215C186.746 159.426 187.615 160.314 188.748 160.881C189.9 161.447 191.258 161.73 192.82 161.73C194.422 161.73 195.779 161.447 196.893 160.881C198.025 160.314 198.885 159.426 199.471 158.215C200.076 157.004 200.379 155.441 200.379 153.527V125.344ZM238.582 156.838C238.582 156.076 238.465 155.393 238.23 154.787C238.016 154.162 237.605 153.596 237 153.088C236.395 152.561 235.545 152.043 234.451 151.535C233.357 151.027 231.941 150.5 230.203 149.953C228.27 149.328 226.434 148.625 224.695 147.844C222.977 147.062 221.453 146.154 220.125 145.119C218.816 144.064 217.781 142.844 217.02 141.457C216.277 140.07 215.906 138.459 215.906 136.623C215.906 134.846 216.297 133.234 217.078 131.789C217.859 130.324 218.953 129.074 220.359 128.039C221.766 126.984 223.426 126.174 225.34 125.607C227.273 125.041 229.393 124.758 231.697 124.758C234.842 124.758 237.586 125.324 239.93 126.457C242.273 127.59 244.09 129.143 245.379 131.115C246.688 133.088 247.342 135.344 247.342 137.883H238.611C238.611 136.633 238.348 135.539 237.82 134.602C237.312 133.645 236.531 132.893 235.477 132.346C234.441 131.799 233.133 131.525 231.551 131.525C230.027 131.525 228.758 131.76 227.742 132.229C226.727 132.678 225.965 133.293 225.457 134.074C224.949 134.836 224.695 135.695 224.695 136.652C224.695 137.375 224.871 138.029 225.223 138.615C225.594 139.201 226.141 139.748 226.863 140.256C227.586 140.764 228.475 141.242 229.529 141.691C230.584 142.141 231.805 142.58 233.191 143.01C235.516 143.713 237.557 144.504 239.314 145.383C241.092 146.262 242.576 147.248 243.768 148.342C244.959 149.436 245.857 150.676 246.463 152.062C247.068 153.449 247.371 155.021 247.371 156.779C247.371 158.635 247.01 160.295 246.287 161.76C245.564 163.225 244.52 164.465 243.152 165.48C241.785 166.496 240.154 167.268 238.26 167.795C236.365 168.322 234.246 168.586 231.902 168.586C229.793 168.586 227.713 168.312 225.662 167.766C223.611 167.199 221.746 166.35 220.066 165.217C218.406 164.084 217.078 162.639 216.082 160.881C215.086 159.123 214.588 157.043 214.588 154.641H223.406C223.406 155.969 223.611 157.092 224.021 158.01C224.432 158.928 225.008 159.67 225.75 160.236C226.512 160.803 227.41 161.213 228.445 161.467C229.5 161.721 230.652 161.848 231.902 161.848C233.426 161.848 234.676 161.633 235.652 161.203C236.648 160.773 237.381 160.178 237.85 159.416C238.338 158.654 238.582 157.795 238.582 156.838Z" fill="#1D401A"/>
<path d="M174.043 85.2734C173.105 85.2734 172.246 85.1367 171.465 84.8633C170.645 84.5898 169.902 84.2383 169.238 83.8086C168.535 83.3398 167.91 82.8516 167.363 82.3438C166.777 81.7969 166.25 81.2891 165.781 80.8203L163.262 82.8711C165.254 85.0977 167.266 86.7383 169.297 87.793C171.289 88.8477 173.398 89.375 175.625 89.375C176.992 89.375 178.398 89.1406 179.844 88.6719C181.25 88.1641 182.637 87.6367 184.004 87.0898C185.332 86.543 186.641 86.0742 187.93 85.6836C189.18 85.2539 190.352 85.0391 191.445 85.0391C192.344 85.0391 193.203 85.1758 194.023 85.4492C194.844 85.7227 195.605 86.0742 196.309 86.5039C197.012 86.9336 197.656 87.4219 198.242 87.9688C198.789 88.4766 199.297 88.9844 199.766 89.4922L202.285 87.4414C200.332 85.2148 198.34 83.5742 196.309 82.5195C194.277 81.4648 192.148 80.9375 189.922 80.9375C188.516 80.9375 187.129 81.1914 185.762 81.6992C184.355 82.168 182.93 82.6758 181.484 83.2227C180.156 83.7695 178.867 84.2578 177.617 84.6875C176.328 85.0781 175.137 85.2734 174.043 85.2734Z" fill="#6AE65C"/>
<path d="M19.4663 126.474C19.5413 125.842 20.4587 125.842 20.5337 126.474L21.163 131.777C21.9755 138.625 27.3746 144.024 34.2225 144.837L39.5258 145.466C40.1581 145.541 40.1581 146.459 39.5258 146.534L34.2225 147.163C27.3746 147.976 21.9755 153.375 21.163 160.223L20.5337 165.526C20.4587 166.158 19.5413 166.158 19.4663 165.526L18.837 160.223C18.0245 153.375 12.6254 147.976 5.77741 147.163L0.474123 146.534C-0.158041 146.459 -0.158041 145.541 0.474123 145.466L5.77741 144.837C12.6254 144.024 18.0245 138.625 18.837 131.777L19.4663 126.474Z" fill="#6AE65C"/>
</svg>
